# xmcd
#
# Track frame offsets:
#	150
#	20025
#	39720
#	55470
#	72627
#	85231
#	100079
#	115379
#	130829
#	146072
#	165947
#	185642
#	201392
#	218549
#	231153
#	246001
#	261301
#	276751
#
# Disc length: 3893
#
# Revision: 1
# Processed by: cddbd v1.5.2PL0 Copyright (c) Steve Scherf et al.
# Submitted via: kJams Pro (development) 1.0patch45.4
#
DISCID=140f3312
DTITLE=Various Artist - NSC 3005
DYEAR=1995
DGENRE=Country
TTITLE0=Dixie Chicks - Cold Day In July
TTITLE1=Garth Brooks - When You Came Back To Me Again
TTITLE2=Lonestar - What About Now
TTITLE3=Tim McGraw - Some Things Never Change
TTITLE4=Alan Jackson - It Must Be Love
TTITLE5=Leann Rimes - I Need You
TTITLE6=Gary Allan - Loving You Against My Will
TTITLE7=Darryl Worley - When You Need My Love
TTITLE8=Montgomery Gentry - Self Made Man
TTITLE9=Dixie Chicks - Vocals - Cold Day In July
TTITLE10=Garth Brooks - Vocals - When You Came Back To Me Again
TTITLE11=Lonestar - Vocals - What About Now
TTITLE12=Tim McGraw - Vocals - Some Things Never Change
TTITLE13=Alan Jackson - Vocals - It Must Be Love
TTITLE14=Leann Rimes - Vocals - I Need You
TTITLE15=Gary Allan - Vocals - Loving You Against My Will
TTITLE16=Darryl Worley - Vocals - When You Need My Love
TTITLE17=Montgomery Gentry - Self Made Man
EXTD=
EXTT0=
EXTT1=
EXTT2=
EXTT3=
EXTT4=
EXTT5=
EXTT6=
EXTT7=
EXTT8=
EXTT9=
EXTT10=
EXTT11=
EXTT12=
EXTT13=
EXTT14=
EXTT15=
EXTT16=
EXTT17=
PLAYORDER=
